<?xml version="1.0" encoding="utf-8"?>
<svg width="500pt" height="150pt" version="1.0" viewBox="0 0 156.042 143.071" xmlns="http://www.w3.org/2000/svg">
  <g transform="translate(0 150) scale(.1 -.1)">
    <path d="m295 1227c-4-51-2-144 4-208 34-362 177-570 430-629 66-15 225-16 300-1 54 11 55 11 89-21 19-18 54-61 79-96s47-61 50-59c7 8-36 112-68 162l-31 49-2 170c-2 157-4 177-29 250-59 170-158 265-349 336-29 10-129 40-223 65-93 25-186 52-207 60l-36 14-7-92zm371-299c154-117 264-226 307-306 16-30 27-55 25-56-6-5-302 202-356 249-29 26-70 70-92 99-34 46-120 192-120 207 0 3 22-16 49-42 26-25 111-94 187-151z"/>
  </g>
</svg>